OpenSim_Sub05_CSBaseline_RCS.mot
version=1
nRows=95
nColumns=11
inDegrees=no
endheader
time	Top_Thigh	Med_Thigh	Bot_Thigh	Top_Shank	2nd_Top_Shank	2nd_Bot_Shank	Bot_Shank	BNOx	BNOy	BNOZ
0	1239.97463104	1338.03711912	1200.72092224	1197.55520241	1400.99401709	1081.04361146	1140.20647136	0	0	0
0.01000000	1239.98386476	1338.33167125	1200.58976963	1197.51714763	1400.99350794	1081.05078983	1140.19787076	0	0	0
0.02000000	1239.99416633	1338.59902097	1200.37342965	1197.38718397	1400.99437331	1081.04650015	1140.15277096	0	0	0
0.03000000	1240.00054380	1338.84231756	1200.13897643	1197.18109844	1400.99696686	1081.02618897	1140.07387975	0	0	0
0.04000000	1239.99805125	1339.06463154	1199.95309191	1196.91447397	1401.00157746	1080.98532773	1139.96382398	0	0	0
0.05000000	1239.98530452	1339.26294001	1199.85211377	1196.58710398	1401.00348109	1080.92131058	1139.81897251	0	0	0
0.06000000	1239.96695678	1339.42389127	1199.82094408	1196.17201764	1400.98945651	1080.83479081	1139.62508643	0	0	0
0.07000000	1239.94824606	1339.53313315	1199.83950257	1195.63965159	1400.94545944	1080.72673743	1139.36689930	0	0	0
0.08000000	1239.93441036	1339.57631346	1199.88770897	1194.96044245	1400.85744556	1080.59811943	1139.02914465	0	0	0
0.09000000	1239.93068770	1339.53908002	1199.94548304	1194.10482685	1400.71137057	1080.44990582	1138.59655606	0	0	0
0.10000000	1239.94231608	1339.40708063	1199.99274451	1193.04324142	1400.49319017	1080.28306558	1138.05386707	0	0	0
0.11000000	1239.97453351	1339.16596311	1200.00941311	1191.74612281	1400.18886005	1080.09856772	1137.38581124	0	0	0
0.12000000	1240.03199409	1338.80260146	1199.97654680	1190.18665157	1399.78492489	1079.89712979	1136.57841552	0	0	0
0.13000000	1240.10592173	1338.33207160	1199.90138270	1188.40111878	1399.28147606	1079.67368572	1135.64745490	0	0	0
0.14000000	1240.17411017	1337.79765143	1199.81733704	1186.48892605	1398.69215160	1079.41738588	1134.63845242	0	0	0
0.15000000	1240.21376924	1337.24384502	1199.75896428	1184.55221891	1398.03117852	1079.11712919	1133.59822449	0	0	0
0.16000000	1240.20210877	1336.71515644	1199.76081890	1182.69314288	1397.31278386	1078.76181454	1132.57358756	0	0	0
0.17000000	1240.11633857	1336.25608974	1199.85745537	1181.01384352	1396.55119464	1078.34034085	1131.61135805	0	0	0
0.18000000	1239.93369692	1335.91066605	1200.08298959	1179.61563638	1395.76030726	1077.84168941	1130.75809268	0	0	0
0.19000000	1239.63362337	1335.68554108	1200.43760716	1178.53562352	1394.92843667	1077.26121623	1130.04025469	0	0	0
0.20000000	1239.19928878	1335.52403356	1200.86397940	1177.70206054	1394.00053558	1076.60508289	1129.45024745	0	0	0
0.21000000	1238.61422545	1335.36332705	1201.29920647	1177.03265960	1392.91735639	1075.88049767	1128.97717514	0	0	0
0.22000000	1237.86196567	1335.14060513	1201.68038855	1176.44513288	1391.61965148	1075.09466882	1128.61014191	0	0	0
0.23000000	1236.92604175	1334.79305137	1201.94462583	1175.85719254	1390.04817326	1074.25480462	1128.33825193	0	0	0
0.24000000	1235.78998598	1334.25784934	1202.02901847	1175.18655075	1388.14367411	1073.36811335	1128.15060935	0	0	0
0.25000000	1234.43733066	1333.47218263	1201.87066665	1174.35091968	1385.84690643	1072.44180326	1128.03631834	0	0	0
0.26000000	1232.85160808	1332.37323479	1201.40667055	1173.26801150	1383.09862261	1071.48308263	1127.98448306	0	0	0
0.27000000	1231.01635054	1330.89818941	1200.57413034	1171.85553837	1379.83957506	1070.49915972	1127.98420768	0	0	0
0.28000000	1228.91752750	1328.99089701	1199.31547287	1170.03401198	1376.01910738	1069.49597274	1128.02400988	0	0	0
0.29000000	1226.59716335	1326.74854827	1197.69563830	1167.78833311	1371.78416125	1068.45024823	1128.07891853	0	0	0
0.30000000	1224.15333735	1324.42167401	1195.90208016	1165.16779156	1367.47927640	1067.30950109	1128.11047364	0	0	0
0.31000000	1221.68656594	1322.26747201	1194.12757862	1162.22447669	1363.45758380	1066.01997615	1128.07962877	0	0	0
0.32000000	1219.29690552	1320.54158614	1192.56388970	1159.01053095	1360.07006970	1064.52836214	1127.94758683	0	0	0
0.33000000	1217.04881728	1319.37943583	1191.32353059	1155.58220546	1357.50178335	1062.81569342	1127.69484360	0	0	0
0.34000000	1214.94642614	1318.71265163	1190.38470311	1152.00271579	1355.65649931	1060.92122255	1127.33459762	0	0	0
0.35000000	1212.98801254	1318.45312401	1189.71259860	1148.33595214	1354.41074636	1058.88984139	1126.88321517	0	0	0
0.36000000	1211.17185690	1318.51274348	1189.27240841	1144.64580471	1353.64105331	1056.76644182	1126.35706255	0	0	0
0.37000000	1209.49623964	1318.80340051	1189.02932387	1140.99616369	1353.22394895	1054.59591572	1125.77250606	0	0	0
0.38000000	1207.95944120	1319.23698560	1188.94853632	1137.45091928	1353.03596207	1052.42315496	1125.14591200	0	0	0
0.39000000	1206.55974199	1319.72538923	1188.99523709	1134.07396167	1352.95362146	1050.29305142	1124.49364664	0	0	0
0.40000000	1205.29542246	1320.18050188	1189.13461752	1130.92918107	1352.85345593	1048.25049697	1123.83207630	0	0	0
0.41000000	1204.16476301	1320.51421406	1189.33186896	1128.08046765	1352.61199426	1046.34038348	1123.17756726	0	0	0
0.42000000	1203.16604409	1320.63841623	1189.55218273	1125.59171163	1352.10576524	1044.60760284	1122.54648582	0	0	0
0.43000000	1202.29754611	1320.46499890	1189.76075019	1123.52680319	1351.21129769	1043.09704691	1121.95519828	0	0	0
0.44000000	1201.55754950	1319.90585255	1189.92276265	1121.94963254	1349.80512037	1041.85360758	1121.42007092	0	0	0
0.45000000	1200.94433987	1318.87293762	1190.00343099	1120.92406115	1347.76388219	1040.92216138	1120.95746513	0	0	0
0.46000000	1200.46306743	1317.37105437	1189.99387183	1120.47585349	1345.12358477	1040.32723340	1120.57721717	0	0	0
0.47000000	1200.13927974	1315.68086391	1189.96217723	1120.51757388	1342.39372488	1040.03287718	1120.26977485	0	0	0
0.48000000	1200.00229547	1314.13402977	1189.99067083	1120.94085767	1340.17134119	1039.99196602	1120.02200133	0	0	0
0.49000000	1200.07607731	1313.01551096	1190.15058892	1121.64719194	1338.96259145	1040.16133199	1119.82205902	0	0	0
0.50000000	1200.35561855	1312.35765208	1190.45319873	1122.59134951	1338.78207847	1040.51921954	1119.66513750	0	0	0
0.51000000	1200.82616293	1312.10778141	1190.88958515	1123.74603629	1339.47897432	1041.05107933	1119.54879131	0	0	0
0.52000000	1201.47294684	1312.21316317	1191.45081787	1125.08397170	1340.90232639	1041.74236745	1119.47057680	0	0	0
0.53000000	1202.28120669	1312.62106159	1192.12796657	1126.57787517	1342.90118210	1042.57854000	1119.42805031	0	0	0
0.54000000	1203.23617887	1313.27874087	1192.91210093	1128.20046612	1345.32458882	1043.54505308	1119.41876818	0	0	0
0.55000000	1204.32309979	1314.13346525	1193.79429065	1129.92446398	1348.02159398	1044.62736278	1119.44028673	0	0	0
0.56000000	1205.52720584	1315.13249893	1194.76560540	1131.72258817	1350.84124497	1045.81092520	1119.49016232	0	0	0
0.57000000	1206.83373342	1316.22310613	1195.81711487	1133.56755812	1353.63258919	1047.08119643	1119.56595127	0	0	0
0.58000000	1208.22791893	1317.35255108	1196.93988874	1135.43209326	1356.24467404	1048.42363256	1119.66520993	0	0	0
0.59000000	1209.69499876	1318.46809798	1198.12499670	1137.28891300	1358.52654692	1049.82368970	1119.78549463	0	0	0
0.60000000	1211.22020932	1319.51701107	1199.36350844	1139.11073678	1360.32725524	1051.26682394	1119.92436171	0	0	0
0.61000000	1212.78770220	1320.44766658	1200.64642056	1140.87116345	1361.50192127	1052.73779931	1120.07925956	0	0	0
0.62000000	1214.35667826	1321.23401733	1201.96304886	1142.56401903	1362.04538953	1054.20546253	1120.24515366	0	0	0
0.63000000	1215.86138767	1321.87559270	1203.30102835	1144.20335663	1362.09222676	1055.62274297	1120.41452658	0	0	0
0.64000000	1217.23499579	1322.37303410	1204.64792095	1145.80410883	1361.78307458	1056.94187795	1120.57975296	0	0	0
0.65000000	1218.41066796	1322.72698295	1205.99128858	1147.38120821	1361.25857462	1058.11510478	1120.73320741	0	0	0
0.66000000	1219.32156955	1322.93808065	1207.31869318	1148.94958732	1360.65936850	1059.09466079	1120.86726458	0	0	0
0.67000000	1219.90086590	1323.00696862	1208.61769666	1150.52417875	1360.12609786	1059.83278330	1120.97429907	0	0	0
0.68000000	1220.09406098	1322.93615491	1209.87323533	1152.11680728	1359.78880279	1060.28823507	1121.04747987	0	0	0
0.69000000	1219.97403800	1322.74741814	1211.04313945	1153.70721412	1359.66807756	1060.48714501	1121.08817657	0	0	0
0.70000000	1219.68882704	1322.47390553	1212.06924823	1155.25621288	1359.71994924	1060.49538448	1121.10259669	0	0	0
0.71000000	1219.38742946	1322.14891122	1212.89319419	1156.72437256	1359.89961035	1060.37933849	1121.09701027	0	0	0
0.72000000	1219.21884661	1321.80572936	1213.45660983	1158.07226212	1360.16225344	1060.20539203	1121.07768735	0	0	0
0.73000000	1219.33207985	1321.47765411	1213.70112767	1159.26045056	1360.46307105	1060.03993013	1121.05089797	0	0	0
0.74000000	1219.87613053	1321.19797960	1213.56838022	1160.24950686	1360.75725572	1059.94933778	1121.02291217	0	0	0
0.75000000	1221.00000000	1321	1213.00000000	1161.00000000	1361.00000000	1060	1121	0	0	0
0.76000000	1222.79274451	1320.90582132	1211.96991161	1161.48361526	1361.15594585	1060.22944409	1120.98696322	0	0	0
0.77000000	1225.10363983	1320.89279705	1210.58120808	1161.71650308	1361.22753292	1060.55976654	1120.98273048	0	0	0
0.78000000	1227.72201662	1320.92709255	1208.96927452	1161.72593022	1361.22665031	1060.88420614	1120.98476217	0	0	0
0.79000000	1230.43720554	1320.97487320	1207.26949605	1161.53916343	1361.16518710	1061.09600166	1120.99051867	0	0	0
0.80000000	1233.03853726	1321.00230436	1205.61725778	1161.18346945	1361.05503236	1061.08839190	1120.99746035	0	0	0
0.81000000	1235.32291010	1320.97729729	1204.14285982	1160.68629179	1360.90815108	1060.76126271	1121.00315017	0	0	0
0.82000000	1237.20045704	1320.89388730	1202.90051539	1160.07771868	1360.73764364	1060.11395997	1121.00668598	0	0	0
0.83000000	1238.66847932	1320.76622001	1201.88586587	1159.38987432	1360.55748449	1059.22239405	1121.00834714	0	0	0
0.84000000	1239.72652046	1320.60895834	1201.09304598	1158.65493524	1360.38167056	1058.16444482	1121.00844345	0	0	0
0.85000000	1240.37412397	1320.43676522	1200.51619045	1157.90507802	1360.22419879	1057.01799216	1121.00728469	0	0	0
0.86000000	1240.61083336	1320.26430357	1200.14943398	1157.17247919	1360.09906611	1055.86091595	1121.00518063	0	0	0
0.87000000	1240.43619216	1320.10623633	1199.98691129	1156.48931530	1360.02026945	1054.77109607	1121.00244106	0	0	0
0.88000000	1239.84983446	1319.97719984	1200.02268404	1155.88769539	1360.00176712	1053.82629118	1120.99937556	0	0	0
0.89000000	1238.87060184	1319.88619349	1200.23532346	1155.38541187	1360.04932815	1053.07856208	1120.99625420	0	0	0
0.90000000	1237.56019019	1319.82964001	1200.56883960	1154.96831498	1360.15045025	1052.52263424	1120.99325880	0	0	0
0.91000000	1235.98609387	1319.80226037	1200.96256619	1154.61793294	1360.29015888	1052.14547530	1120.99055924	0	0	0
0.92000000	1234.21580727	1319.79877556	1201.35583692	1154.31579401	1360.45347953	1051.93405289	1120.98832542	0	0	0
0.93000000	1232.31682474	1319.81390656	1201.68798552	1154.04342640	1360.62543765	1051.87533465	1120.98672723	0	0	0
0.94000000	1230.35664067	1319.84237437	1201.89834569	1153.78235837	1360.79105874	1051.95628820	1120.98593455	0	0	0
